# xmcd
#
# Track frame offsets:
#	150
#	10180
#	12186
#	22886
#	27920
#	35432
#	43254
#	51058
#	59518
#	67989
#	74474
#	78638
#	83942
#	91912
#	100647
#	108974
#	115702
#	121322
#	132484
#	141760
#	149733
#	157722
#	164001
#	169001
#	185680
#	189487
#	194295
#	196934
#	208451
#	217500
#	221362
#	227018
#	234126
#	243531
#	250035
#	252478
#	260867
#	267249
#	271076
#	277861
#	286956
#	294681
#	301965
#	309714
#
# Disc length: 4216 seconds
#
# Revision: 1
# Processed by: cddbd v1.4PL0 Copyright (c) Steve Scherf et al.
# Submitted via: audiograbber 1.81.03
#
DISCID=7f10762c
DTITLE=Владимир Высоцкий - 1960 - 1965 диск 2
DYEAR=1900
DGENRE=Ballad
TTITLE0=Все ушли на фронт
TTITLE1=Потеряю истинную веру...
TTITLE2=Звезды
TTITLE3=Песня о госпитале
TTITLE4=Наводчица
TTITLE5=Счетчик щелкает
TTITLE6=Ребята, напишите мне письмо
TTITLE7=Если б водка была на одного ...
TTITLE8=Та оно и есть...
TTITLE9=Передо мной любой факир - ну просто карлик...
TTITLE10=В этом доме большом раньше пьянка была...
TTITLE11=Ну о чем с тобою говорить !...
TTITLE12=Я любил и женщин и проказы...
TTITLE13=Песня про Уголовный кодекс
TTITLE14=Песня про стукача
TTITLE15=Формулировка
TTITLE16=Я был слесарь шестого разряда
TTITLE17=О нашей встрече
TTITLE18=Все позади - и КПЗ, и суд...
TTITLE19=Рецидивист
TTITLE20=В пику, а не в черву
TTITLE21=Нам вчера прислали...
TTITLE22=В куски разлетелася корона...
TTITLE23=Мне ребята сказали про такую наколку!...
TTITLE24=Парня спасаем...
TTITLE25=Катерина, Катя, Катерина!...
TTITLE26=День рождения лейтенанта милиции в ресторане "Берлин"
TTITLE27=Марш студентов - физиков
TTITLE28=Песня о нейтральной полосе
TTITLE29=Песня спившегося снайпера
TTITLE30=То была не интрижка...
TTITLE31=Она во двор - он со двора...
TTITLE32=Попутчик
TTITLE33=Братские могилы
TTITLE34=И фюрер кричал, от завода бледнея...
TTITLE35=Солдаты группы "Центр"
TTITLE36=Высота
TTITLE37=Сыт я по горло, до подбородка...
TTITLE38=Мой друг уедет в Магадан...
TTITLE39=Перед выездом в загранку...
TTITLE40=В холода, в холода...
TTITLE41=Мой сосед объездил весь Союз
TTITLE42=Песня о сумасшедшем доме
TTITLE43=Есть на земле предостаточно рас...
EXTD=
EXTT0=
EXTT1=
EXTT2=
EXTT3=
EXTT4=
EXTT5=
EXTT6=
EXTT7=
EXTT8=
EXTT9=
EXTT10=
EXTT11=
EXTT12=
EXTT13=
EXTT14=
EXTT15=
EXTT16=
EXTT17=
EXTT18=
EXTT19=
EXTT20=
EXTT21=
EXTT22=
EXTT23=
EXTT24=
EXTT25=
EXTT26=
EXTT27=
EXTT28=
EXTT29=
EXTT30=
EXTT31=
EXTT32=
EXTT33=
EXTT34=
EXTT35=
EXTT36=
EXTT37=
EXTT38=
EXTT39=
EXTT40=
EXTT41=
EXTT42=
EXTT43=
PLAYORDER=
